<?xml version="1.0" encoding="UTF-8"?>
<svg id="_レイヤー_2" data-name="レイヤー 2" xmlns="http://www.w3.org/2000/svg" viewBox="0 0 138.46 156.47">
  <defs>
    <style>
      .cls-1 {
        fill: #e61673;
      }

      .cls-2 {
        fill: #fff;
      }
    </style>
  </defs>
  <g id="_レイヤー_1-2" data-name="レイヤー 1">
    <g>
      <g>
        <path class="cls-2" d="M4.98,156.3H.29v-.28h.22c.28,0,.62-.19.62-.62v-4.5c0-.39-.22-.61-.58-.61h-.26v-.29h4.55l.57,1.44-.22.1c-.29-.41-.87-1.26-2.02-1.26h-.81c-.5,0-.68.21-.68.59v2.04h1.1c.42,0,.83-.37.83-.93v-.14h.28v2.46h-.28v-.3c0-.41-.28-.81-.83-.81h-1.1v2.22c0,.35.25.6.62.6h.6c.71,0,1.27-.21,1.54-.39.53-.34.74-.74.9-1.03l.23.1-.6,1.59Z"/>
        <path class="cls-2" d="M16.44,150.3c-.48,0-.78.36-.78.96v5.05h-.27l-3.67-5.74v4.67c0,.44.26.79.6.79h.42v.28h-2.3v-.28h.37c.35,0,.6-.38.6-.79v-4.23c0-.45-.35-.71-.68-.71h-.29v-.29h1.56l3.36,5.24v-4c0-.96-.65-.96-.9-.96v-.29h2.1v.29h-.13Z"/>
        <path class="cls-2" d="M27.09,151.73c-.38-.62-.87-1.44-1.83-1.44-.28,0-.66.09-.66.63v4.47c0,.43.27.63.6.63h.45v.28h-2.62v-.28h.42c.35,0,.6-.21.6-.63v-4.47c0-.52-.34-.63-.66-.63-.94,0-1.45.82-1.82,1.44l-.22-.11.64-1.61h4.66l.64,1.61-.22.11Z"/>
        <path class="cls-2" d="M36.9,156.3h-4.69v-.28h.22c.28,0,.62-.19.62-.62v-4.5c0-.39-.22-.61-.58-.61h-.26v-.29h4.55l.57,1.44-.22.1c-.29-.41-.87-1.26-2.02-1.26h-.81c-.5,0-.68.21-.68.59v2.04h1.1c.42,0,.83-.37.83-.93v-.14h.28v2.46h-.28v-.3c0-.41-.28-.81-.83-.81h-1.1v2.22c0,.35.25.6.62.6h.6c.71,0,1.27-.21,1.54-.39.53-.34.74-.74.9-1.03l.23.1-.6,1.59Z"/>
        <path class="cls-2" d="M46.63,156.3l-1.76-3.09h-1v2.19c0,.43.27.63.61.63h.27v.28h-2.3v-.28h.26c.35,0,.61-.21.61-.63v-4.47c0-.41-.24-.63-.61-.63h-.26v-.29h2.66c1.03,0,2.2.37,2.2,1.52,0,.5-.24.9-.59,1.17-.42.33-.84.41-1.24.47l1.29,2.26c.25.43.53.6.96.6h.13v.28h-1.22ZM45.16,150.3h-.68c-.39,0-.61.24-.61.63v2h1.24c.82,0,1.52-.45,1.52-1.33s-.66-1.3-1.47-1.3Z"/>
        <path class="cls-2" d="M58.37,151.73c-.38-.62-.87-1.44-1.83-1.44-.28,0-.66.09-.66.63v4.47c0,.43.27.63.6.63h.45v.28h-2.62v-.28h.42c.35,0,.6-.21.6-.63v-4.47c0-.52-.34-.63-.66-.63-.94,0-1.45.82-1.82,1.44l-.22-.11.64-1.61h4.66l.64,1.61-.22.11Z"/>
        <path class="cls-1" d="M67.69,156.3v-.28h.3c.31,0,.35-.17.35-.33,0-.04,0-.12-.06-.29l-.46-1.34h-2.59l-.45,1.26s-.07.2-.07.35.04.35.4.35h.14v.28h-1.7v-.28h.16c.34,0,.62-.25.74-.6l1.93-5.45.6-.13,1.91,5.62c.1.31.32.55.69.55h.27v.28h-2.17ZM66.56,150.3l-1.23,3.48h2.41l-1.17-3.48Z"/>
        <path class="cls-1" d="M74.77,156.3v-.28h.47c.31,0,.6-.17.6-.63v-4.47c0-.4-.22-.63-.6-.63h-.47v-.29h2.69v.29h-.46c-.36,0-.6.21-.6.63v4.47c0,.42.26.63.6.63h.46v.28h-2.69Z"/>
        <path class="cls-2" d="M88.25,150.3c-.48,0-.78.36-.78.96v5.05h-.27l-3.67-5.74v4.67c0,.44.26.79.6.79h.42v.28h-2.3v-.28h.37c.35,0,.6-.38.6-.79v-4.23c0-.45-.35-.71-.68-.71h-.29v-.29h1.56l3.36,5.24v-4c0-.96-.65-.96-.9-.96v-.29h2.1v.29h-.13Z"/>
        <path class="cls-2" d="M98.38,156.3v-.28h.24c.34,0,.6-.2.6-.63v-5.03l-2.36,5.93h-.24l-2.27-5.93v5.03c0,.45.28.63.6.63h.17v.28h-1.9v-.28h.22c.33,0,.6-.19.6-.63v-4.47c0-.41-.24-.63-.6-.63h-.22v-.29h1.59l2.09,5.46,2.17-5.46h1.57v.29h-.26c-.37,0-.61.22-.61.63v4.47c0,.4.25.63.61.63h.26v.28h-2.27Z"/>
        <path class="cls-2" d="M110.3,156.3h-4.69v-.28h.22c.28,0,.62-.19.62-.62v-4.5c0-.39-.22-.61-.58-.61h-.26v-.29h4.55l.57,1.44-.22.1c-.29-.41-.87-1.26-2.02-1.26h-.81c-.5,0-.68.21-.68.59v2.04h1.1c.42,0,.83-.37.83-.93v-.14h.28v2.46h-.28v-.3c0-.41-.28-.81-.83-.81h-1.1v2.22c0,.35.25.6.62.6h.6c.71,0,1.27-.21,1.54-.39.53-.34.74-.74.9-1.03l.23.1-.6,1.59Z"/>
        <path class="cls-2" d="M121.76,150.3c-.48,0-.78.36-.78.96v5.05h-.27l-3.67-5.74v4.67c0,.44.26.79.6.79h.42v.28h-2.3v-.28h.37c.35,0,.6-.38.6-.79v-4.23c0-.45-.35-.71-.68-.71h-.29v-.29h1.56l3.36,5.24v-4c0-.96-.65-.96-.9-.96v-.29h2.1v.29h-.13Z"/>
        <path class="cls-2" d="M132.41,151.73c-.38-.62-.87-1.44-1.83-1.44-.28,0-.66.09-.66.63v4.47c0,.43.27.63.6.63h.45v.28h-2.62v-.28h.42c.35,0,.6-.21.6-.63v-4.47c0-.52-.34-.63-.66-.63-.94,0-1.45.82-1.82,1.44l-.22-.11.64-1.61h4.66l.64,1.61-.22.11Z"/>
        <path class="cls-2" d="M138.03,156.47c-.27,0-.44-.21-.44-.44,0-.21.16-.43.44-.43s.43.22.43.43c0,.22-.17.44-.43.44Z"/>
      </g>
      <path class="cls-2" d="M16.54,8.72c0,7.2,0,15.14.11,22.23,0,2.09,0,3.66.06,4.67,0,.45.11,2.37.11,2.82,0,.84-.22,2.36-2.2,2.36-.9,0-.84-.51-.84-1.4v-2.53h-7.99v1.63c0,2.25,0,2.48-.17,2.93-.45,1.01-1.52,1.35-2.14,1.35-.96,0-1.07-.68-1.07-1.3,0-.34.17-1.86.17-2.14.34-7.54.34-21.83.34-30.05,0-1.8,0-2.7-.45-4.84l4.05,1.85h6.87l1.01-1.07c.28-.27.45-.5.73-.5.22,0,.45.23.73.39l1.86,1.41c.23.17.56.5.56.79,0,.4-.45.67-1.74,1.4ZM13.84,7.65H5.8v13.56h8.05V7.65ZM13.84,22.57H5.8v12.94h8.05v-12.94ZM50.99,20.59h-23.97c-1.75,0-4.95.23-7.2.68l-1.35-2.48c3.1.29,6.25.45,9.34.45h4.11v-5.35h-1.52c-1.8,0-4.95.17-7.26.62l-1.29-2.42c3.1.29,6.19.45,9.34.45h.73v-4.89h-3.21c-1.8,0-4.95.17-7.26.62l-1.35-2.42c3.15.29,6.25.45,9.4.45h2.42c-.11-3.54-.11-3.94-.79-6.3l4.73,1.4c.51.17.84.29.84.68,0,.45-.17.57-1.74,1.75v2.47h8.78l1.29-1.74c.28-.4.56-.73.9-.73.28,0,.62.22,1.07.62l2.14,1.74c.28.23.56.45.56.84,0,.51-.51.62-.84.62h-13.9v4.89h7.14l1.07-1.4c.28-.4.62-.73.9-.73.22,0,.51.22,1.01.57l2.2,1.46c.22.17.56.4.56.84,0,.51-.45.62-.84.62h-12.04v5.35h10.35l1.63-2.08c.45-.57.62-.73.84-.73.28,0,.39.06,1.01.62l2.48,2.08c.28.28.56.5.56.9,0,.51-.51.56-.84.56ZM45.02,27.29c0,2.19.06,8.66.06,10.81,0,.39.17,7.32.17,8.33,0,1.29,0,2.76-1.41,4.06-1.52,1.41-3.04,1.57-3.71,1.63-.39-1.13-.96-2.87-5.12-4.4l.06-.34c.9.06,5.12.34,5.68.34,1.41,0,1.41-.45,1.41-3.26v-4.56h-16.1c0,1.58.17,8.39.17,9.74,0,1.63-1.57,2.25-2.31,2.25-1.13,0-1.13-.91-1.13-1.64,0-.11.51-13.28.51-15.81,0-2.98-.06-9.4-.45-11.87l4.16,2.14h14.35l.79-.84c.28-.28.56-.62.84-.62s.62.29,1.02.51l2.14,1.4c.45.29.51.45.51.68,0,.39-.51.84-1.63,1.46ZM42.15,26.06h-16.1v5.51h16.1v-5.51ZM42.15,32.93h-16.1v5.63h16.1v-5.63Z"/>
      <path class="cls-2" d="M130.17,49.09c-12.38-5.4-19.19-16.33-21.33-26.74h-.73c-.62,5.13-1.97,13.51-9.96,20.32-5.63,4.73-11.03,6.25-13.22,6.87l-.11-.68c17.84-7.88,19.47-21.16,20.09-26.51h-9.12c-1.97,0-5.06.23-7.2.68l-1.35-2.42c4.22.34,8.33.39,9.34.39h8.5c.67-6.75.67-11.08.67-13.45h-12.72c-1.97,0-5.06.23-7.2.68l-1.35-2.42c4.22.34,8.33.4,9.34.4h31.07l2.08-2.82c.06-.11.51-.67.84-.67.39,0,.73.34,1.02.56l3.21,2.82c.34.34.56.5.56.89,0,.51-.51.57-.84.57h-22.79c0,2.08,0,6.19-.73,13.45h13.62l1.91-2.76c.06-.17.45-.73.84-.73.34,0,.96.57,1.02.62l3.09,2.76c.34.34.57.5.57.84,0,.57-.45.61-.84.61h-18.91c1.8,5.07,4.5,9.8,8.27,13.62,4.84,4.84,10.24,7.54,17.05,8.89l.06.28c-2.08.79-3.6,1.8-4.73,3.94Z"/>
      <path class="cls-2" d="M24.59,88.16h-8.16c-.06,1.58-.06,2.7-.06,5.4,2.81.28,7.94,2.08,7.94,5.4,0,1.01-.51,1.69-1.29,1.69-1.18,0-1.52-.51-3.21-3.15-.84-1.35-1.97-2.59-3.43-3.27,0,1.69.17,9.96.17,10.53v4.56c0,2.42-2.08,2.37-2.36,2.37-.62,0-.96-.22-.96-.96,0-.84.28-4.45.28-5.18.17-3.94.22-10.87.22-12.89-3.71,7.6-9.62,12.05-13.51,14.52l-.22-.34c3.88-3.2,11.42-14.41,12.77-18.68h-1.97c-1.75,0-4.9.16-7.2.61l-1.35-2.42c3.1.28,6.24.45,9.34.45h2.14c-.11-5.51-.17-6.19-.79-8.22l4.45,1.07c.68.17.84.57.84.84,0,.57-.39.84-1.8,1.46.06,1.3,0,3.38,0,4.84h3.04l1.24-1.86c.28-.45.62-.68.84-.68.28,0,.73.29,1.07.57l2.25,1.86c.22.22.56.45.56.84,0,.51-.51.62-.84.62ZM4.11,128.28c-.79,0-1.69-.5-1.69-1.63s.56-1.63,1.69-2.53c.96-.73,3.26-2.87,4.11-7.09h.34c.06.68.17,1.35.17,2.42,0,6.14-2.7,8.84-4.61,8.84ZM39.05,127.6c-2.42,1.41-8.1,1.52-11.08,1.52-2.03,0-9-.06-10.58-.79-1.69-.84-1.69-2.81-1.69-5.07,0-5.51,0-7.2-.34-9.4l4.39,1.24c.45.11.73.34.73.62,0,.68-1.07,1.47-1.86,2.09-.11,1.63-.17,6.41.23,7.37.34.73,1.01.84,1.97.91,1.35.05,7.09.22,7.94.22,4.56,0,6.53-.68,7.54-2.09,1.18-1.63,1.8-3.6,2.37-5.56h.28c.23,4.72.45,5.23,1.86,5.79.23.11.34.28.34.57,0,.22-.17,1.46-2.08,2.58ZM29.04,119.89c-1.12,0-1.41-.73-2.2-2.47-.34-.79-1.97-3.55-3.6-4.45l.17-.34c.84.17,3.32.84,4.84,1.91,1.86,1.29,2.31,2.76,2.31,3.54,0,1.02-.57,1.8-1.52,1.8ZM46.93,85.29c0,5.34.06,14.01.28,19.13.06.73.34,4.51.34,4.9,0,1.35-1.46,2.08-2.25,2.08-1.12,0-1.24-1.24-1.18-2.08h-13.51c-.06.9-1.29,1.8-2.14,1.8-.96,0-1.18-.84-1.18-1.24,0-.34.23-2.14.23-2.6,0-1.18.28-11.7.28-19.41,0-2.65,0-2.76-.45-6.92l3.66,1.74h12.38l1.24-1.24c.28-.28.56-.61.96-.61s.84.34,1.01.45l1.8,1.18c.45.29.68.45.68.9,0,.73-.84,1.19-2.14,1.92ZM44.12,84.05h-13.56v6.92h13.56v-6.92ZM44.12,92.32h-13.56v6.76h13.56v-6.76ZM44.12,100.42h-13.56v7.55h13.56v-7.55ZM50.31,125.35c-1.29,0-1.57-.79-2.31-2.87-1.29-3.71-3.49-6.14-4.33-7.09l.22-.22c5.35,1.91,8.22,6.02,8.22,8.21,0,1.47-.79,1.97-1.8,1.97Z"/>
      <path class="cls-2" d="M131.92,128.75h-.68c-17.16,0-22.45-.05-27.85-1.8-4.33-1.34-6.19-3.43-7.71-6.12-1.07,1.07-5.85,5.56-6.81,6.47-.06,1.4-.11,2.02-.79,2.02-.51,0-.79-.45-.9-.57l-2.82-3.76c.68-.11,2.36-.22,3.88-.91.73-.34,4-1.91,5.35-2.81v-16.72h-1.52c-1.97,0-5.12.22-7.26.67l-1.29-2.47c4.22.4,7.77.45,9.06.45l1.57-1.47c.34-.27.51-.45.79-.45s.39.11.67.29l2.53,1.8c.17.11.39.29.39.67,0,.22-.06.45-.45.68-.28.16-1.41.89-1.63,1.01-.06.17-.17,12.16.06,13.4.79,4.72,6.19,6.52,17.39,6.52,7.37,0,14.75-.51,21.95-2.19v.22c-.84.61-3.38,2.36-3.94,5.05ZM95.79,91.22c-1.07,0-1.18-.22-2.42-3.54-.73-1.91-2.31-5.07-3.94-6.14l.23-.34c6.41,2.25,8.27,6.36,8.27,7.99,0,1.35-1.24,2.02-2.14,2.02ZM133.38,101.36h-25.32c-2.03,0-5.12.22-7.26.67l-1.35-2.42c4.22.34,8.33.4,9.4.4h5.35v-9.18h-8.67c-1.63,3.15-2.92,4.67-4.39,6.2l-.22-.06c1.41-3.32,4.05-10.47,4.05-14.41,0-.56-.06-.67-.17-1.07l4.44,1.86c.11.05.68.27.68.73s-.39.67-.51.73c-.23.05-1.18.45-1.35.56-.68,1.58-1.13,2.58-1.86,4.11h7.99c0-3.55,0-7.71-1.07-10.42l5.18,1.3c.34.11.84.22.84.78,0,.51,0,.56-2.08,1.8-.06,1.8-.06,3.43-.06,6.53h6.87l1.75-1.86c.62-.67.73-.78.96-.78.17,0,.39.11,1.07.62l2.53,1.91c.23.16.56.45.56.84,0,.5-.51.61-.84.61h-12.89v.79c0,1.35.11,7.2.11,8.38h10.07l1.69-2.2c.34-.45.56-.73.9-.73s1.07.57,1.13.62l2.76,2.2c.22.22.56.51.56.89,0,.51-.51.57-.84.57ZM126.23,109.34c0,1.18,0,1.86.28,4.84.17,1.47.39,4.16.39,4.78,0,1.97-1.69,2.58-2.25,2.58-1.35,0-1.29-1.34-1.24-2.87h-14.57c.11.79.17,1.69-.17,2.31-.34.51-1.24.96-1.91.96-.9,0-1.13-.62-1.13-1.07,0-1.07.28-6.07.28-7.25,0-3.22-.17-5.64-.51-8.62l4.33,2.02h12.94l1.52-1.4c.34-.29.45-.4.67-.4.11,0,.34.11.45.24l2.37,1.85c.22.22.39.34.39.62,0,.51-.39.67-1.86,1.4ZM123.42,108.39h-14.63v8.95h14.63v-8.95Z"/>
    </g>
  </g>
</svg>